<?xml version="1.0" encoding="UTF-8" standalone="no"?>
<!DOCTYPE svg PUBLIC "-//W3C//DTD SVG 1.1//EN" "http://www.w3.org/Graphics/SVG/1.1/DTD/svg11.dtd">
<!-- Generated by Microsoft Visio, SVG Export Greiff2014_Flowchart.svg Page-1 -->
<svg xmlns="http://www.w3.org/2000/svg" xmlns:xlink="http://www.w3.org/1999/xlink" xmlns:ev="http://www.w3.org/2001/xml-events"
		width="4.65278in" height="4.40959in" viewBox="0 0 335 317.491" xml:space="preserve" color-interpolation-filters="sRGB"
		class="st20">
	<style type="text/css">
	<![CDATA[
		.st1 {visibility:visible}
		.st2 {fill:none;filter:url(#filter_2.6666667461395);marker-end:url(#mrkr5-8);stroke:#000000;stroke-dasharray:0.75,1.5;stroke-linecap:round;stroke-linejoin:round;stroke-opacity:0.4}
		.st3 {fill:#000000;fill-opacity:0.4;stroke:#000000;stroke-opacity:0.4;stroke-width:0.22935779816514}
		.st4 {marker-end:url(#mrkr5-14);stroke:#000000;stroke-dasharray:0.75,1.5;stroke-linecap:round;stroke-linejoin:round;stroke-width:0.75}
		.st5 {fill:#000000;fill-opacity:1;stroke:#000000;stroke-opacity:1;stroke-width:0.22935779816514}
		.st6 {fill:none;filter:url(#filter_2.6666667461395);marker-end:url(#mrkr5-22);stroke:#000000;stroke-linecap:round;stroke-linejoin:round;stroke-opacity:0.4}
		.st7 {fill:#000000;fill-opacity:0.4;stroke:#000000;stroke-opacity:0.4;stroke-width:0.37313432835821}
		.st8 {marker-end:url(#mrkr5-28);stroke:#000000;stroke-linecap:round;stroke-linejoin:round;stroke-width:1.5}
		.st9 {fill:#000000;fill-opacity:1;stroke:#000000;stroke-opacity:1;stroke-width:0.37313432835821}
		.st10 {fill:#000000;fill-opacity:0.4;filter:url(#filter_2.6666667461395);stroke:#000000;stroke-linecap:round;stroke-linejoin:round;stroke-opacity:0.4}
		.st11 {fill:#d8d8d8;stroke:#000000;stroke-linecap:round;stroke-linejoin:round;stroke-width:0.24}
		.st12 {fill:#000000;font-family:Arial;font-size:1.00001em;font-weight:bold}
		.st13 {font-size:0.666659em;font-weight:normal}
		.st14 {font-size:0.666659em;font-style:italic;font-weight:normal}
		.st15 {fill:#22c476;stroke:#000000;stroke-linecap:round;stroke-linejoin:round;stroke-width:0.24}
		.st16 {fill:#000000;font-family:Arial;font-size:0.916672em}
		.st17 {fill:#2980b9;stroke:#000000;stroke-linecap:round;stroke-linejoin:round;stroke-width:0.24}
		.st18 {fill:#ffa22c;stroke:#000000;stroke-linecap:round;stroke-linejoin:round;stroke-width:0.24}
		.st19 {fill:#000000;font-family:Arial;font-size:0.666664em}
		.st20 {fill:none;fill-rule:evenodd;font-size:12px;overflow:visible;stroke-linecap:square;stroke-miterlimit:3}
	]]>
	</style>

	<defs id="Markers">
		<g id="lend5">
			<path d="M 2 1 L 0 0 L 1.98117 -0.993387 C 1.67173 -0.364515 1.67301 0.372641 1.98465 1.00043 " style="stroke:none"/>
		</g>
		<marker id="mrkr5-8" class="st3" refX="-7.63" orient="auto" markerUnits="strokeWidth" overflow="visible">
			<use xlink:href="#lend5" transform="scale(-4.36,-4.36) "/>
		</marker>
		<marker id="mrkr5-14" class="st5" refX="-7.63" orient="auto" markerUnits="strokeWidth" overflow="visible">
			<use xlink:href="#lend5" transform="scale(-4.36,-4.36) "/>
		</marker>
		<marker id="mrkr5-22" class="st7" refX="-4.69" orient="auto" markerUnits="strokeWidth" overflow="visible">
			<use xlink:href="#lend5" transform="scale(-2.68,-2.68) "/>
		</marker>
		<marker id="mrkr5-28" class="st9" refX="-4.69" orient="auto" markerUnits="strokeWidth" overflow="visible">
			<use xlink:href="#lend5" transform="scale(-2.68,-2.68) "/>
		</marker>
	</defs>
	<defs id="Filters">
		<filter id="filter_2.6666667461395">
			<feGaussianBlur stdDeviation="2.6666667461395"/>
		</filter>
	</defs>
	<g>
		<title>Page-1</title>
		<g id="shape38-1" transform="translate(108,-204.987)">
			<title>Dynamic connector.38</title>
			<g id="shadow38-2" transform="matrix(1,0,0,1,2.12132,2.12132)" class="st1">
				<path d="M0 308.49 L-21.28 308.49" class="st2"/>
			</g>
			<path d="M0 308.49 L-21.28 308.49" class="st4"/>
		</g>
		<g id="shape47-15" transform="translate(156.375,-96.3695)">
			<title>Dynamic connector.47</title>
			<g id="shadow47-16" transform="matrix(1,0,0,1,2.12132,2.12132)" class="st1">
				<path d="M9 319.87 L9 326.08" class="st6"/>
			</g>
			<path d="M9 319.87 L9 326.08" class="st8"/>
		</g>
		<g id="shape48-29" transform="translate(156.375,-59.3713)">
			<title>Dynamic connector.48</title>
			<g id="shadow48-30" transform="matrix(1,0,0,1,2.12132,2.12132)" class="st1">
				<path d="M9 318.62 L9 327.33" class="st6"/>
			</g>
			<path d="M9 318.62 L9 327.33" class="st8"/>
		</g>
		<g id="shape41-41" transform="translate(192.379,-238.737)">
			<title>Dynamic connector.41</title>
			<g id="shadow41-42" transform="matrix(1,0,0,1,2.12132,2.12132)" class="st1">
				<path d="M0 317.49 L0 324.24 L72 324.24 L72 330.89" class="st2"/>
			</g>
			<path d="M0 317.49 L0 324.24 L72 324.24 L72 330.89" class="st4"/>
		</g>
		<g id="shape32-53" transform="translate(108,-168.987)">
			<title>Dynamic connector.32</title>
			<g id="shadow32-54" transform="matrix(1,0,0,1,2.12132,2.12132)" class="st1">
				<path d="M0 308.49 L-21.28 308.49" class="st2"/>
			</g>
			<path d="M0 308.49 L-21.28 308.49" class="st4"/>
		</g>
		<g id="shape24-65" transform="translate(224.439,-15.4963)">
			<title>Dynamic connector.24</title>
			<g id="shadow24-66" transform="matrix(1,0,0,1,2.12132,2.12132)" class="st1">
				<path d="M0.56 308.49 L11.72 308.49" class="st2"/>
			</g>
			<path d="M0.56 308.49 L11.72 308.49" class="st4"/>
		</g>
		<g id="shape27-77" transform="translate(108,-132.987)">
			<title>Dynamic connector.27</title>
			<g id="shadow27-78" transform="matrix(1,0,0,1,2.12132,2.12132)" class="st1">
				<path d="M0 308.49 L-21.28 308.49" class="st2"/>
			</g>
			<path d="M0 308.49 L-21.28 308.49" class="st4"/>
		</g>
		<g id="shape18-89" transform="translate(174.375,-132.615)">
			<title>Dynamic connector.18</title>
			<g id="shadow18-90" transform="matrix(1,0,0,1,2.12132,2.12132)" class="st1">
				<path d="M-9 319.37 L-9 326.58" class="st6"/>
			</g>
			<path d="M-9 319.37 L-9 326.58" class="st8"/>
		</g>
		<g id="shape28-101" transform="translate(156.375,-168.987)">
			<title>Dynamic connector.28</title>
			<g id="shadow28-102" transform="matrix(1,0,0,1,2.12132,2.12132)" class="st1">
				<path d="M9 319.74 L9 326.21" class="st6"/>
			</g>
			<path d="M9 319.74 L9 326.21" class="st8"/>
		</g>
		<g id="shape29-113" transform="translate(156.375,-240.987)">
			<title>Dynamic connector.29</title>
			<g id="shadow29-114" transform="matrix(1,0,0,1,2.12132,2.12132)" class="st1">
				<path d="M9 319.74 L9 326.21" class="st6"/>
			</g>
			<path d="M9 319.74 L9 326.21" class="st8"/>
		</g>
		<g id="shape30-125" transform="translate(264.379,-279.237)">
			<title>Dynamic connector.30</title>
			<g id="shadow30-126" transform="matrix(1,0,0,1,2.12132,2.12132)" class="st1">
				<path d="M0 317.49 L0 346.74 L-34.59 346.74" class="st6"/>
			</g>
			<path d="M0 317.49 L0 346.74 L-34.59 346.74" class="st8"/>
		</g>
		<g id="shape31-137" transform="translate(66.3787,-279.237)">
			<title>Dynamic connector</title>
			<g id="shadow31-138" transform="matrix(1,0,0,1,2.12132,2.12132)" class="st1">
				<path d="M0 317.49 L0 346.74 L34.59 346.74" class="st6"/>
			</g>
			<path d="M0 317.49 L0 346.74 L34.59 346.74" class="st8"/>
		</g>
		<g id="shape1-149" transform="translate(2.25368,-279.237)">
			<title>External Data</title>
			<desc>Read 1 C-Region Primer FASTQ</desc>
			<g id="shadow1-150" transform="matrix(1,0,0,1,2.12132,2.12132)" class="st1">
				<path d="M4.5 281.49 L128.25 281.49 A38.25 38.25 -180 0 0 128.25 317.49 L4.5 317.49 A38.25 38.25 0 0 1 4.5 281.49
							 Z" class="st10"/>
			</g>
			<path d="M4.5 281.49 L128.25 281.49 A38.25 38.25 -180 0 0 128.25 317.49 L4.5 317.49 A38.25 38.25 0 0 1 4.5 281.49 Z"
					class="st11"/>
			<text x="44.45" y="293.48" class="st12">Read 1 <tspan x="34.34" dy="1.35em" class="st13">C</tspan><tspan class="st13">-</tspan><tspan
						class="st13">Region Primer </tspan><tspan x="50.79" dy="1.202em" class="st14">FASTQ</tspan></text>		</g>
		<g id="shape4-159" transform="translate(200.254,-279.237)">
			<title>External Data.4</title>
			<desc>Read 2 V-Segment Primer FASTQ</desc>
			<g id="shadow4-160" transform="matrix(1,0,0,1,2.12132,2.12132)" class="st1">
				<path d="M4.5 281.49 L128.25 281.49 A38.25 38.25 -180 0 0 128.25 317.49 L4.5 317.49 A38.25 38.25 0 0 1 4.5 281.49
							 Z" class="st10"/>
			</g>
			<path d="M4.5 281.49 L128.25 281.49 A38.25 38.25 -180 0 0 128.25 317.49 L4.5 317.49 A38.25 38.25 0 0 1 4.5 281.49 Z"
					class="st11"/>
			<text x="44.45" y="293.48" class="st12">Read 2 <tspan x="31.23" dy="1.35em" class="st13">V</tspan><tspan class="st13">-</tspan><tspan
						class="st13">Segment Primer </tspan><tspan x="50.79" dy="1.202em" class="st14">FASTQ</tspan></text>		</g>
		<g id="shape37-169" transform="translate(156.375,-204.987)">
			<title>Dynamic connector.37</title>
			<g id="shadow37-170" transform="matrix(1,0,0,1,2.12132,2.12132)" class="st1">
				<path d="M9 319.74 L9 326.21" class="st6"/>
			</g>
			<path d="M9 319.74 L9 326.21" class="st8"/>
		</g>
		<g id="shape5-181" transform="translate(108,-130.737)">
			<title>Process.5</title>
			<desc>MaskPrimers score</desc>
			<g id="shadow5-182" transform="matrix(1,0,0,1,2.12132,2.12132)" class="st1">
				<rect x="0" y="294.991" width="114.75" height="22.5" class="st10"/>
			</g>
			<rect x="0" y="294.991" width="114.75" height="22.5" class="st15"/>
			<text x="10.31" y="309.54" class="st16">MaskPrimers score</text>		</g>
		<g id="shape8-187" transform="translate(108,-93.9926)">
			<title>Process.8</title>
			<desc>CollapseSeq</desc>
			<g id="shadow8-188" transform="matrix(1,0,0,1,2.12132,2.12132)" class="st1">
				<rect x="0" y="294.991" width="114.75" height="22.5" class="st10"/>
			</g>
			<rect x="0" y="294.991" width="114.75" height="22.5" class="st17"/>
			<text x="26.19" y="309.54" class="st16">CollapseSeq</text>		</g>
		<g id="shape9-193" transform="translate(108,-238.737)">
			<title>Process.9</title>
			<desc>AssemblePairs align</desc>
			<g id="shadow9-194" transform="matrix(1,0,0,1,2.12132,2.12132)" class="st1">
				<rect x="0" y="294.991" width="114.75" height="22.5" class="st10"/>
			</g>
			<rect x="0" y="294.991" width="114.75" height="22.5" class="st18"/>
			<text x="7.55" y="309.54" class="st16">AssemblePairs align</text>		</g>
		<g id="shape10-199" transform="translate(108,-166.737)">
			<title>Process.10</title>
			<desc>MaskPrimers score</desc>
			<g id="shadow10-200" transform="matrix(1,0,0,1,2.12132,2.12132)" class="st1">
				<rect x="0" y="294.991" width="114.75" height="22.5" class="st10"/>
			</g>
			<rect x="0" y="294.991" width="114.75" height="22.5" class="st15"/>
			<text x="10.31" y="309.54" class="st16">MaskPrimers score</text>		</g>
		<g id="shape11-205" transform="translate(36,-172.362)">
			<title>Start/End</title>
			<desc>ParseLog</desc>
			<g id="shadow11-206" transform="matrix(1,0,0,1,2.12132,2.12132)" class="st1">
				<path d="M5.63 317.49 L39.37 317.49 A5.625 5.625 -180 0 0 39.37 306.24 L5.63 306.24 A5.625 5.625 -180 1 0 5.63 317.49
							 Z" class="st10"/>
			</g>
			<path d="M5.63 317.49 L39.37 317.49 A5.625 5.625 -180 0 0 39.37 306.24 L5.63 306.24 A5.625 5.625 -180 1 0 5.63 317.49
						 Z" class="st15"/>
			<text x="5.38" y="314.27" class="st19">ParseLog</text>		</g>
		<g id="shape34-211" transform="translate(36,-136.362)">
			<title>Start/End.34</title>
			<desc>ParseLog</desc>
			<g id="shadow34-212" transform="matrix(1,0,0,1,2.12132,2.12132)" class="st1">
				<path d="M5.63 317.49 L39.37 317.49 A5.625 5.625 -180 0 0 39.37 306.24 L5.63 306.24 A5.625 5.625 -180 1 0 5.63 317.49
							 Z" class="st10"/>
			</g>
			<path d="M5.63 317.49 L39.37 317.49 A5.625 5.625 -180 0 0 39.37 306.24 L5.63 306.24 A5.625 5.625 -180 1 0 5.63 317.49
						 Z" class="st15"/>
			<text x="5.38" y="314.27" class="st19">ParseLog</text>		</g>
		<g id="shape36-217" transform="translate(108,-202.737)">
			<title>Process.36</title>
			<desc>FilterSeq quality</desc>
			<g id="shadow36-218" transform="matrix(1,0,0,1,2.12132,2.12132)" class="st1">
				<rect x="0" y="294.991" width="114.75" height="22.5" class="st10"/>
			</g>
			<rect x="0" y="294.991" width="114.75" height="22.5" class="st15"/>
			<text x="17.94" y="309.54" class="st16">FilterSeq quality</text>		</g>
		<g id="shape39-223" transform="translate(36,-208.362)">
			<title>Start/End.39</title>
			<desc>ParseLog</desc>
			<g id="shadow39-224" transform="matrix(1,0,0,1,2.12132,2.12132)" class="st1">
				<path d="M5.63 317.49 L39.37 317.49 A5.625 5.625 -180 0 0 39.37 306.24 L5.63 306.24 A5.625 5.625 -180 1 0 5.63 317.49
							 Z" class="st10"/>
			</g>
			<path d="M5.63 317.49 L39.37 317.49 A5.625 5.625 -180 0 0 39.37 306.24 L5.63 306.24 A5.625 5.625 -180 1 0 5.63 317.49
						 Z" class="st15"/>
			<text x="5.38" y="314.27" class="st19">ParseLog</text>		</g>
		<g id="shape40-229" transform="translate(241.879,-208.362)">
			<title>Start/End.40</title>
			<desc>ParseLog</desc>
			<g id="shadow40-230" transform="matrix(1,0,0,1,2.12132,2.12132)" class="st1">
				<path d="M5.63 317.49 L39.37 317.49 A5.625 5.625 -180 0 0 39.37 306.24 L5.63 306.24 A5.625 5.625 -180 1 0 5.63 317.49
							 Z" class="st10"/>
			</g>
			<path d="M5.63 317.49 L39.37 317.49 A5.625 5.625 -180 0 0 39.37 306.24 L5.63 306.24 A5.625 5.625 -180 1 0 5.63 317.49
						 Z" class="st18"/>
			<text x="5.38" y="314.27" class="st19">ParseLog</text>		</g>
		<g id="shape44-235" transform="translate(108,-58.2463)">
			<title>Process.44</title>
			<desc>SplitSeq group</desc>
			<g id="shadow44-236" transform="matrix(1,0,0,1,2.12132,2.12132)" class="st1">
				<rect x="0" y="294.991" width="114.75" height="22.5" class="st10"/>
			</g>
			<rect x="0" y="294.991" width="114.75" height="22.5" class="st17"/>
			<text x="21.29" y="309.54" class="st16">SplitSeq group</text>		</g>
		<g id="shape45-241" transform="translate(241.879,-18.8713)">
			<title>Start/End.45</title>
			<desc>ParseHeaders table</desc>
			<g id="shadow45-242" transform="matrix(1,0,0,1,2.12132,2.12132)" class="st1">
				<path d="M5.63 317.49 L79.87 317.49 A5.625 5.625 -180 0 0 79.87 306.24 L5.63 306.24 A5.625 5.625 -180 1 0 5.63 317.49
							 Z" class="st10"/>
			</g>
			<path d="M5.63 317.49 L79.87 317.49 A5.625 5.625 -180 0 0 79.87 306.24 L5.63 306.24 A5.625 5.625 -180 1 0 5.63 317.49
						 Z" class="st17"/>
			<text x="7.4" y="314.27" class="st19">ParseHeaders table</text>		</g>
		<g id="shape46-247" transform="translate(101.25,-6.49632)">
			<title>External Data.46</title>
			<desc>Final Repertoire FASTQ</desc>
			<g id="shadow46-248" transform="matrix(1,0,0,1,2.12132,2.12132)" class="st1">
				<path d="M4.5 281.49 L128.25 281.49 A38.25 38.25 -180 0 0 128.25 317.49 L4.5 317.49 A38.25 38.25 0 0 1 4.5 281.49
							 Z" class="st10"/>
			</g>
			<path d="M4.5 281.49 L128.25 281.49 A38.25 38.25 -180 0 0 128.25 317.49 L4.5 317.49 A38.25 38.25 0 0 1 4.5 281.49 Z"
					class="st11"/>
			<text x="18.45" y="298.28" class="st12">Final Repertoire <tspan x="50.79" dy="1.352em" class="st14">FASTQ</tspan></text>		</g>
	</g>
</svg>
