<?xml version="1.0" encoding="UTF-8" standalone="no"?>
<!DOCTYPE svg PUBLIC "-//W3C//DTD SVG 1.1//EN" "http://www.w3.org/Graphics/SVG/1.1/DTD/svg11.dtd">
<!-- Generated by Microsoft Visio, SVG Export Jiang2013_Flowchart.svg Page-1 -->
<svg xmlns="http://www.w3.org/2000/svg" xmlns:xlink="http://www.w3.org/1999/xlink" xmlns:ev="http://www.w3.org/2001/xml-events"
		width="3.21627in" height="4.95019in" viewBox="0 0 231.571 356.414" xml:space="preserve" color-interpolation-filters="sRGB"
		class="st21">
	<style type="text/css">
	<![CDATA[
		.st1 {visibility:visible}
		.st2 {fill:none;filter:url(#filter_2.6666667461395);marker-end:url(#mrkr5-8);stroke:#000000;stroke-linecap:round;stroke-linejoin:round;stroke-opacity:0.4}
		.st3 {fill:#000000;fill-opacity:0.4;stroke:#000000;stroke-opacity:0.4;stroke-width:0.37313432835821}
		.st4 {marker-end:url(#mrkr5-14);stroke:#000000;stroke-linecap:round;stroke-linejoin:round;stroke-width:1.5}
		.st5 {fill:#000000;fill-opacity:1;stroke:#000000;stroke-opacity:1;stroke-width:0.37313432835821}
		.st6 {fill:none;filter:url(#filter_2.6666667461395);marker-end:url(#mrkr5-22);stroke:#000000;stroke-linecap:round;stroke-linejoin:round;stroke-opacity:0.4}
		.st7 {marker-end:url(#mrkr5-28);stroke:#000000;stroke-linecap:round;stroke-linejoin:round;stroke-width:1.5}
		.st8 {fill:none;filter:url(#filter_2.6666667461395);marker-end:url(#mrkr5-36);stroke:#000000;stroke-dasharray:0.75,1.5;stroke-linecap:round;stroke-linejoin:round;stroke-opacity:0.4}
		.st9 {fill:#000000;fill-opacity:0.4;stroke:#000000;stroke-opacity:0.4;stroke-width:0.22935779816514}
		.st10 {marker-end:url(#mrkr5-42);stroke:#000000;stroke-dasharray:0.75,1.5;stroke-linecap:round;stroke-linejoin:round;stroke-width:0.75}
		.st11 {fill:#000000;fill-opacity:1;stroke:#000000;stroke-opacity:1;stroke-width:0.22935779816514}
		.st12 {fill:#000000;fill-opacity:0.4;filter:url(#filter_2.6666667461395);stroke:#000000;stroke-linecap:round;stroke-linejoin:round;stroke-opacity:0.4}
		.st13 {fill:#d8d8d8;stroke:#000000;stroke-linecap:round;stroke-linejoin:round;stroke-width:0.24}
		.st14 {fill:#000000;font-family:Arial;font-size:1.00001em;font-weight:bold}
		.st15 {font-size:0.666659em;font-style:italic;font-weight:normal}
		.st16 {fill:#22c476;stroke:#000000;stroke-linecap:round;stroke-linejoin:round;stroke-width:0.24}
		.st17 {fill:#000000;font-family:Arial;font-size:0.916672em}
		.st18 {fill:#2980b9;stroke:#000000;stroke-linecap:round;stroke-linejoin:round;stroke-width:0.24}
		.st19 {fill:#ffa22c;stroke:#000000;stroke-linecap:round;stroke-linejoin:round;stroke-width:0.24}
		.st20 {fill:#000000;font-family:Arial;font-size:0.666664em}
		.st21 {fill:none;fill-rule:evenodd;font-size:12px;overflow:visible;stroke-linecap:square;stroke-miterlimit:3}
	]]>
	</style>

	<defs id="Markers">
		<g id="lend5">
			<path d="M 2 1 L 0 0 L 1.98117 -0.993387 C 1.67173 -0.364515 1.67301 0.372641 1.98465 1.00043 " style="stroke:none"/>
		</g>
		<marker id="mrkr5-8" class="st3" refX="-4.69" orient="auto" markerUnits="strokeWidth" overflow="visible">
			<use xlink:href="#lend5" transform="scale(-2.68,-2.68) "/>
		</marker>
		<marker id="mrkr5-14" class="st5" refX="-4.69" orient="auto" markerUnits="strokeWidth" overflow="visible">
			<use xlink:href="#lend5" transform="scale(-2.68,-2.68) "/>
		</marker>
		<marker id="mrkr5-22" class="st3" refX="-0" orient="auto" markerUnits="strokeWidth" overflow="visible">
			<use xlink:href="#lend5" transform="scale(-2.68,-2.68) "/>
		</marker>
		<marker id="mrkr5-28" class="st5" refX="-0" orient="auto" markerUnits="strokeWidth" overflow="visible">
			<use xlink:href="#lend5" transform="scale(-2.68,-2.68) "/>
		</marker>
		<marker id="mrkr5-36" class="st9" refX="-7.63" orient="auto" markerUnits="strokeWidth" overflow="visible">
			<use xlink:href="#lend5" transform="scale(-4.36,-4.36) "/>
		</marker>
		<marker id="mrkr5-42" class="st11" refX="-7.63" orient="auto" markerUnits="strokeWidth" overflow="visible">
			<use xlink:href="#lend5" transform="scale(-4.36,-4.36) "/>
		</marker>
	</defs>
	<defs id="Filters">
		<filter id="filter_2.6666667461395">
			<feGaussianBlur stdDeviation="2.6666667461395"/>
		</filter>
	</defs>
	<g>
		<title>Page-1</title>
		<g id="shape18-1" transform="translate(57.3787,-169.91)">
			<title>Dynamic connector.18</title>
			<g id="shadow18-2" transform="matrix(1,0,0,1,2.12132,2.12132)" class="st1">
				<path d="M9 358.92 L9 364.88" class="st2"/>
			</g>
			<path d="M9 358.92 L9 364.88" class="st4"/>
		</g>
		<g id="shape52-15" transform="translate(57.4143,-134.328)">
			<title>Dynamic connector.52</title>
			<g id="shadow52-16" transform="matrix(1,0,0,1,2.12132,2.12132)" class="st1">
				<path d="M8.96 358.83 L8.96 365.58 L9.04 365.58 L9.04 372" class="st6"/>
			</g>
			<path d="M8.96 358.83 L8.96 365.58 L9.04 365.58 L9.04 372" class="st7"/>
		</g>
		<g id="shape38-29" transform="translate(123.754,-241.657)">
			<title>Dynamic connector.38</title>
			<g id="shadow38-30" transform="matrix(1,0,0,1,2.12132,2.12132)" class="st1">
				<path d="M0 347.41 L30.35 347.41" class="st8"/>
			</g>
			<path d="M0 347.41 L30.35 347.41" class="st10"/>
		</g>
		<g id="shape47-43" transform="translate(57.45,-98.6195)">
			<title>Dynamic connector.47</title>
			<g id="shadow47-44" transform="matrix(1,0,0,1,2.12132,2.12132)" class="st1">
				<path d="M9 358.79 L9 365" class="st2"/>
			</g>
			<path d="M9 358.79 L9 365" class="st4"/>
		</g>
		<g id="shape48-55" transform="translate(57.45,-60.4963)">
			<title>Dynamic connector.48</title>
			<g id="shadow48-56" transform="matrix(1,0,0,1,2.12132,2.12132)" class="st1">
				<path d="M9 356.41 L9 367.38" class="st2"/>
			</g>
			<path d="M9 356.41 L9 367.38" class="st4"/>
		</g>
		<g id="shape41-67" transform="translate(123.754,-277.657)">
			<title>Dynamic connector.41</title>
			<g id="shadow41-68" transform="matrix(1,0,0,1,2.12132,2.12132)" class="st1">
				<path d="M0 347.41 L30.35 347.41" class="st8"/>
			</g>
			<path d="M0 347.41 L30.35 347.41" class="st10"/>
		</g>
		<g id="shape32-79" transform="translate(123.754,-205.657)">
			<title>Dynamic connector.32</title>
			<g id="shadow32-80" transform="matrix(1,0,0,1,2.12132,2.12132)" class="st1">
				<path d="M0 347.41 L30.35 347.41" class="st8"/>
			</g>
			<path d="M0 347.41 L30.35 347.41" class="st10"/>
		</g>
		<g id="shape24-91" transform="translate(126.075,-15.4963)">
			<title>Dynamic connector.24</title>
			<g id="shadow24-92" transform="matrix(1,0,0,1,2.12132,2.12132)" class="st1">
				<path d="M0 347.41 L12.28 347.41" class="st8"/>
			</g>
			<path d="M0 347.41 L12.28 347.41" class="st10"/>
		</g>
		<g id="shape27-103" transform="translate(123.754,-169.657)">
			<title>Dynamic connector.27</title>
			<g id="shadow27-104" transform="matrix(1,0,0,1,2.12132,2.12132)" class="st1">
				<path d="M0 347.41 L30.35 347.41" class="st8"/>
			</g>
			<path d="M0 347.41 L30.35 347.41" class="st10"/>
		</g>
		<g id="shape28-115" transform="translate(57.3787,-205.657)">
			<title>Dynamic connector.28</title>
			<g id="shadow28-116" transform="matrix(1,0,0,1,2.12132,2.12132)" class="st1">
				<path d="M9 358.66 L9 365.13" class="st2"/>
			</g>
			<path d="M9 358.66 L9 365.13" class="st4"/>
		</g>
		<g id="shape29-127" transform="translate(57.3787,-277.657)">
			<title>Dynamic connector.29</title>
			<g id="shadow29-128" transform="matrix(1,0,0,1,2.12132,2.12132)" class="st1">
				<path d="M9 358.66 L9 365.13" class="st2"/>
			</g>
			<path d="M9 358.66 L9 365.13" class="st4"/>
		</g>
		<g id="shape30-139" transform="translate(57.3787,-318.16)">
			<title>Dynamic connector.30</title>
			<g id="shadow30-140" transform="matrix(1,0,0,1,2.12132,2.12132)" class="st1">
				<path d="M9 356.41 L9 369.63" class="st2"/>
			</g>
			<path d="M9 356.41 L9 369.63" class="st4"/>
		</g>
		<g id="shape4-151" transform="translate(2.25368,-318.16)">
			<title>External Data.4</title>
			<desc>Reads FASTQ</desc>
			<g id="shadow4-152" transform="matrix(1,0,0,1,2.12132,2.12132)" class="st1">
				<path d="M4.5 320.41 L128.25 320.41 A38.25 38.25 -180 0 0 128.25 356.41 L4.5 356.41 A38.25 38.25 0 0 1 4.5 320.41
							 Z" class="st12"/>
			</g>
			<path d="M4.5 320.41 L128.25 320.41 A38.25 38.25 -180 0 0 128.25 356.41 L4.5 356.41 A38.25 38.25 0 0 1 4.5 320.41 Z"
					class="st13"/>
			<text x="46.12" y="337.2" class="st14">Reads <tspan x="50.79" dy="1.352em" class="st15">FASTQ</tspan></text>		</g>
		<g id="shape37-158" transform="translate(57.3787,-241.657)">
			<title>Dynamic connector.37</title>
			<g id="shadow37-159" transform="matrix(1,0,0,1,2.12132,2.12132)" class="st1">
				<path d="M9 358.66 L9 365.13" class="st2"/>
			</g>
			<path d="M9 358.66 L9 365.13" class="st4"/>
		</g>
		<g id="shape5-170" transform="translate(9.00368,-167.407)">
			<title>Process.5</title>
			<desc>MaskPrimers align</desc>
			<g id="shadow5-171" transform="matrix(1,0,0,1,2.12132,2.12132)" class="st1">
				<rect x="0" y="333.914" width="114.75" height="22.5" class="st12"/>
			</g>
			<rect x="0" y="333.914" width="114.75" height="22.5" class="st16"/>
			<text x="12.14" y="348.46" class="st17">MaskPrimers align</text>		</g>
		<g id="shape8-176" transform="translate(9.075,-96.2426)">
			<title>Process.8</title>
			<desc>CollapseSeq</desc>
			<g id="shadow8-177" transform="matrix(1,0,0,1,2.12132,2.12132)" class="st1">
				<rect x="0" y="333.914" width="114.75" height="22.5" class="st12"/>
			</g>
			<rect x="0" y="333.914" width="114.75" height="22.5" class="st18"/>
			<text x="26.19" y="348.46" class="st17">CollapseSeq</text>		</g>
		<g id="shape9-182" transform="translate(9.00368,-275.407)">
			<title>Process.9</title>
			<desc>FilterSeq length</desc>
			<g id="shadow9-183" transform="matrix(1,0,0,1,2.12132,2.12132)" class="st1">
				<rect x="0" y="333.914" width="114.75" height="22.5" class="st12"/>
			</g>
			<rect x="0" y="333.914" width="114.75" height="22.5" class="st19"/>
			<text x="18.85" y="348.46" class="st17">FilterSeq length</text>		</g>
		<g id="shape10-188" transform="translate(9.00368,-203.407)">
			<title>Process.10</title>
			<desc>MaskPrimers score</desc>
			<g id="shadow10-189" transform="matrix(1,0,0,1,2.12132,2.12132)" class="st1">
				<rect x="0" y="333.914" width="114.75" height="22.5" class="st12"/>
			</g>
			<rect x="0" y="333.914" width="114.75" height="22.5" class="st16"/>
			<text x="10.31" y="348.46" class="st17">MaskPrimers score</text>		</g>
		<g id="shape11-194" transform="translate(159.825,-209.032)">
			<title>Start/End</title>
			<desc>ParseLog</desc>
			<g id="shadow11-195" transform="matrix(1,0,0,1,2.12132,2.12132)" class="st1">
				<path d="M5.63 356.41 L39.37 356.41 A5.625 5.625 -180 0 0 39.37 345.16 L5.63 345.16 A5.625 5.625 -180 1 0 5.63 356.41
							 Z" class="st12"/>
			</g>
			<path d="M5.63 356.41 L39.37 356.41 A5.625 5.625 -180 0 0 39.37 345.16 L5.63 345.16 A5.625 5.625 -180 1 0 5.63 356.41
						 Z" class="st16"/>
			<text x="5.38" y="353.19" class="st20">ParseLog</text>		</g>
		<g id="shape34-200" transform="translate(159.825,-173.032)">
			<title>Start/End.34</title>
			<desc>ParseLog</desc>
			<g id="shadow34-201" transform="matrix(1,0,0,1,2.12132,2.12132)" class="st1">
				<path d="M5.63 356.41 L39.37 356.41 A5.625 5.625 -180 0 0 39.37 345.16 L5.63 345.16 A5.625 5.625 -180 1 0 5.63 356.41
							 Z" class="st12"/>
			</g>
			<path d="M5.63 356.41 L39.37 356.41 A5.625 5.625 -180 0 0 39.37 345.16 L5.63 345.16 A5.625 5.625 -180 1 0 5.63 356.41
						 Z" class="st16"/>
			<text x="5.38" y="353.19" class="st20">ParseLog</text>		</g>
		<g id="shape36-206" transform="translate(9.00368,-239.407)">
			<title>Process.36</title>
			<desc>FilterSeq quality</desc>
			<g id="shadow36-207" transform="matrix(1,0,0,1,2.12132,2.12132)" class="st1">
				<rect x="0" y="333.914" width="114.75" height="22.5" class="st12"/>
			</g>
			<rect x="0" y="333.914" width="114.75" height="22.5" class="st19"/>
			<text x="17.94" y="348.46" class="st17">FilterSeq quality</text>		</g>
		<g id="shape39-212" transform="translate(159.825,-245.032)">
			<title>Start/End.39</title>
			<desc>ParseLog</desc>
			<g id="shadow39-213" transform="matrix(1,0,0,1,2.12132,2.12132)" class="st1">
				<path d="M5.63 356.41 L39.37 356.41 A5.625 5.625 -180 0 0 39.37 345.16 L5.63 345.16 A5.625 5.625 -180 1 0 5.63 356.41
							 Z" class="st12"/>
			</g>
			<path d="M5.63 356.41 L39.37 356.41 A5.625 5.625 -180 0 0 39.37 345.16 L5.63 345.16 A5.625 5.625 -180 1 0 5.63 356.41
						 Z" class="st19"/>
			<text x="5.38" y="353.19" class="st20">ParseLog</text>		</g>
		<g id="shape40-218" transform="translate(159.825,-281.032)">
			<title>Start/End.40</title>
			<desc>ParseLog</desc>
			<g id="shadow40-219" transform="matrix(1,0,0,1,2.12132,2.12132)" class="st1">
				<path d="M5.63 356.41 L39.37 356.41 A5.625 5.625 -180 0 0 39.37 345.16 L5.63 345.16 A5.625 5.625 -180 1 0 5.63 356.41
							 Z" class="st12"/>
			</g>
			<path d="M5.63 356.41 L39.37 356.41 A5.625 5.625 -180 0 0 39.37 345.16 L5.63 345.16 A5.625 5.625 -180 1 0 5.63 356.41
						 Z" class="st19"/>
			<text x="5.38" y="353.19" class="st20">ParseLog</text>		</g>
		<g id="shape44-224" transform="translate(9.075,-60.4963)">
			<title>Process.44</title>
			<desc>SplitSeq group</desc>
			<g id="shadow44-225" transform="matrix(1,0,0,1,2.12132,2.12132)" class="st1">
				<rect x="0" y="333.914" width="114.75" height="22.5" class="st12"/>
			</g>
			<rect x="0" y="333.914" width="114.75" height="22.5" class="st18"/>
			<text x="21.29" y="348.46" class="st17">SplitSeq group</text>		</g>
		<g id="shape45-230" transform="translate(144.075,-18.8713)">
			<title>Start/End.45</title>
			<desc>ParseHeaders table</desc>
			<g id="shadow45-231" transform="matrix(1,0,0,1,2.12132,2.12132)" class="st1">
				<path d="M5.63 356.41 L75.37 356.41 A5.625 5.625 -180 0 0 75.37 345.16 L5.63 345.16 A5.625 5.625 -180 1 0 5.63 356.41
							 Z" class="st12"/>
			</g>
			<path d="M5.63 356.41 L75.37 356.41 A5.625 5.625 -180 0 0 75.37 345.16 L5.63 345.16 A5.625 5.625 -180 1 0 5.63 356.41
						 Z" class="st18"/>
			<text x="5.15" y="353.19" class="st20">ParseHeaders table</text>		</g>
		<g id="shape46-236" transform="translate(2.325,-6.49632)">
			<title>External Data.46</title>
			<desc>Final Repertoire FASTQ</desc>
			<g id="shadow46-237" transform="matrix(1,0,0,1,2.12132,2.12132)" class="st1">
				<path d="M4.5 320.41 L128.25 320.41 A38.25 38.25 -180 0 0 128.25 356.41 L4.5 356.41 A38.25 38.25 0 0 1 4.5 320.41
							 Z" class="st12"/>
			</g>
			<path d="M4.5 320.41 L128.25 320.41 A38.25 38.25 -180 0 0 128.25 356.41 L4.5 356.41 A38.25 38.25 0 0 1 4.5 320.41 Z"
					class="st13"/>
			<text x="18.45" y="337.2" class="st14">Final Repertoire <tspan x="50.79" dy="1.352em" class="st15">FASTQ</tspan></text>		</g>
		<g id="shape49-243" transform="translate(123.754,-134.164)">
			<title>Dynamic connector.49</title>
			<g id="shadow49-244" transform="matrix(1,0,0,1,2.12132,2.12132)" class="st1">
				<path d="M0 347.41 L30.35 347.41" class="st8"/>
			</g>
			<path d="M0 347.41 L30.35 347.41" class="st10"/>
		</g>
		<g id="shape50-255" transform="translate(9.00368,-131.914)">
			<title>Process.50</title>
			<desc>MaskPrimers align</desc>
			<g id="shadow50-256" transform="matrix(1,0,0,1,2.12132,2.12132)" class="st1">
				<rect x="0" y="333.914" width="114.75" height="22.5" class="st12"/>
			</g>
			<rect x="0" y="333.914" width="114.75" height="22.5" class="st16"/>
			<text x="12.14" y="348.46" class="st17">MaskPrimers align</text>		</g>
		<g id="shape51-261" transform="translate(159.825,-137.539)">
			<title>Start/End.51</title>
			<desc>ParseLog</desc>
			<g id="shadow51-262" transform="matrix(1,0,0,1,2.12132,2.12132)" class="st1">
				<path d="M5.63 356.41 L39.37 356.41 A5.625 5.625 -180 0 0 39.37 345.16 L5.63 345.16 A5.625 5.625 -180 1 0 5.63 356.41
							 Z" class="st12"/>
			</g>
			<path d="M5.63 356.41 L39.37 356.41 A5.625 5.625 -180 0 0 39.37 345.16 L5.63 345.16 A5.625 5.625 -180 1 0 5.63 356.41
						 Z" class="st16"/>
			<text x="5.38" y="353.19" class="st20">ParseLog</text>		</g>
	</g>
</svg>
