<?xml version="1.0" encoding="UTF-8" standalone="no"?>
<!DOCTYPE svg PUBLIC "-//W3C//DTD SVG 1.1//EN" "http://www.w3.org/Graphics/SVG/1.1/DTD/svg11.dtd">
<!-- Generated by Microsoft Visio, SVG Export VanderHeiden2017_ReadConfiguration.svg Page-1 -->
<svg xmlns="http://www.w3.org/2000/svg" xmlns:xlink="http://www.w3.org/1999/xlink" xmlns:ev="http://www.w3.org/2001/xml-events"
		width="8.87095in" height="2.04738in" viewBox="0 0 638.709 147.412" xml:space="preserve" color-interpolation-filters="sRGB"
		class="st15">
	<style type="text/css">
	<![CDATA[
		.st1 {stroke:#000000;stroke-linecap:round;stroke-linejoin:round;stroke-width:3}
		.st2 {fill:#ffffff}
		.st3 {stroke:#000000;stroke-linecap:round;stroke-linejoin:round;stroke-width:1}
		.st4 {marker-end:url(#mrkr13-13);stroke:#000000;stroke-linecap:round;stroke-linejoin:round;stroke-width:1}
		.st5 {fill:#000000;fill-opacity:1;stroke:#000000;stroke-opacity:1;stroke-width:0.35714285714286}
		.st6 {fill:#ffffff;stroke:none;stroke-linecap:butt;stroke-width:7.2}
		.st7 {fill:#000000;font-family:Arial;font-size:0.833336em}
		.st8 {stroke:#000000;stroke-linecap:round;stroke-linejoin:round;stroke-width:0.5}
		.st9 {fill:#000000;font-family:Arial;font-size:1.00001em}
		.st10 {font-size:1em}
		.st11 {marker-end:url(#mrkr13-62);stroke:#000000;stroke-linecap:round;stroke-linejoin:round;stroke-width:3}
		.st12 {fill:#000000;fill-opacity:1;stroke:#000000;stroke-opacity:1;stroke-width:0.54347826086957}
		.st13 {fill:#000000;stroke:#000000;stroke-linecap:round;stroke-linejoin:round;stroke-width:0.24}
		.st14 {fill:#ffffff;font-family:Arial;font-size:1.00001em;font-weight:bold}
		.st15 {fill:none;fill-rule:evenodd;font-size:12px;overflow:visible;stroke-linecap:square;stroke-miterlimit:3}
	]]>
	</style>

	<defs id="Markers">
		<g id="lend13">
			<path d="M 3 1 L 0 0 L 3 -1 L 3 1 " style="stroke:none"/>
		</g>
		<marker id="mrkr13-13" class="st5" refX="-8.4" orient="auto" markerUnits="strokeWidth" overflow="visible">
			<use xlink:href="#lend13" transform="scale(-2.8,-2.8) "/>
		</marker>
		<marker id="mrkr13-62" class="st12" refX="-5.52" orient="auto" markerUnits="strokeWidth" overflow="visible">
			<use xlink:href="#lend13" transform="scale(-1.84,-1.84) "/>
		</marker>
	</defs>
	<g>
		<title>Page-1</title>
		<g id="shape41-1" transform="translate(123.459,-61.875)">
			<title>Dynamic connector.41</title>
			<path d="M6.9 138.41 L11.1 138.41" class="st1"/>
		</g>
		<g id="shape42-4" transform="translate(65.1772,-61.875)">
			<title>Dynamic connector.42</title>
			<path d="M6.82 138.41 L11.18 138.41" class="st1"/>
		</g>
		<g id="shape8-7" transform="translate(8.85438,-28.7058)">
			<title>Horizontal.8</title>
			<desc>17 bp</desc>
			<path d="M0 126.16 L0 142.41 L0 126.16 ZM63 126.16 L63 142.41 L63 126.16 Z" class="st2"/>
			<path d="M0 126.16 L0 142.41 L0 126.16" class="st3"/>
			<path d="M63 126.16 L63 142.41 L63 126.16" class="st3"/>
			<path d="M31.5 136.16 L8.4 136.16" class="st4"/>
			<path d="M31.5 136.16 L54.6 136.16" class="st4"/>
			<rect x="18.9875" y="130.162" width="25.0247" height="12.0001" class="st6"/>
			<text x="18.99" y="139.16" class="st7">17 bp</text>		</g>
		<g id="shape9-20" transform="translate(544.354,-89.4558)">
			<title>Horizontal.9</title>
			<desc>18-22 bp</desc>
			<path d="M0 126.16 L0 142.41 L0 126.16 ZM85.5 126.16 L85.5 142.41 L85.5 126.16 Z" class="st2"/>
			<path d="M0 126.16 L0 142.41 L0 126.16" class="st3"/>
			<path d="M85.5 126.16 L85.5 142.41 L85.5 126.16" class="st3"/>
			<path d="M42.75 136.16 L8.4 136.16" class="st4"/>
			<path d="M42.75 136.16 L77.1 136.16" class="st4"/>
			<rect x="23.011" y="130.162" width="39.4777" height="12.0001" class="st6"/>
			<text x="23.01" y="139.16" class="st7">18-22 bp</text>		</g>
		<g id="shape15-32" transform="translate(213.386,-61.875)">
			<title>Dynamic connector.15</title>
			<path d="M6.68 138.41 L11.32 138.41" class="st1"/>
		</g>
		<g id="shape16-35" transform="translate(533.032,-61.875)">
			<title>Dynamic connector.16</title>
			<path d="M6.68 138.41 L11.32 138.41" class="st1"/>
		</g>
		<g id="shape1-38" transform="translate(134.563,-54.5442)">
			<title>Subprocess</title>
			<desc>Leader</desc>
			<path d="M0 147.41 L85.5 147.41 L85.5 114.75 L0 114.75 L0 147.41 Z" class="st2"/>
			<path d="M0 147.41 L85.5 147.41 L85.5 114.75 L0 114.75 L0 147.41" class="st8"/>
			<path d="M9 147.41 L9 114.75" class="st8"/>
			<path d="M76.5 147.41 L76.5 114.75" class="st8"/>
			<text x="24.07" y="134.68" class="st9">Leader</text>		</g>
		<g id="shape2-44" transform="translate(224.709,-54.5442)">
			<title>Subprocess.2</title>
			<desc>V(D)J</desc>
			<path d="M0 147.41 L315 147.41 L315 114.75 L0 114.75 L0 147.41 Z" class="st2"/>
			<path d="M0 147.41 L315 147.41 L315 114.75 L0 114.75 L0 147.41" class="st8"/>
			<path d="M9 147.41 L9 114.75" class="st8"/>
			<path d="M306 147.41 L306 114.75" class="st8"/>
			<text x="142.17" y="134.68" class="st9">V(D)J</text>		</g>
		<g id="shape3-50" transform="translate(544.354,-54.5442)">
			<title>Subprocess.3</title>
			<desc>C-Region Primer</desc>
			<path d="M0 147.41 L85.5 147.41 L85.5 114.75 L0 114.75 L0 147.41 Z" class="st2"/>
			<path d="M0 147.41 L85.5 147.41 L85.5 114.75 L0 114.75 L0 147.41" class="st8"/>
			<path d="M9 147.41 L9 114.75" class="st8"/>
			<path d="M76.5 147.41 L76.5 114.75" class="st8"/>
			<text x="17.41" y="127.48" class="st9">C-Region <tspan x="25.08" dy="1.2em" class="st10">Primer</tspan></text>		</g>
		<g id="shape18-57" transform="translate(58.3544,-17.4558)">
			<title>Sheet.18</title>
			<path d="M0 147.41 L240.09 147.41" class="st11"/>
		</g>
		<g id="shape21-63" transform="translate(134.854,-28.7058)">
			<title>Horizontal.21</title>
			<desc>248-252 bp</desc>
			<path d="M0 126.16 L0 142.41 L0 126.16 ZM180.15 126.16 L180.15 142.41 L180.15 126.16 Z" class="st2"/>
			<path d="M0 126.16 L0 142.41 L0 126.16" class="st3"/>
			<path d="M180.15 126.16 L180.15 142.41 L180.15 126.16" class="st3"/>
			<path d="M90.07 136.16 L8.4 136.16" class="st4"/>
			<path d="M90.07 136.16 L171.75 136.16" class="st4"/>
			<rect x="64.7722" y="130.162" width="50.6008" height="12.0001" class="st6"/>
			<text x="64.77" y="139.16" class="st7">248-252 bp</text>		</g>
		<g id="shape22-75" transform="translate(296.854,-89.4558)">
			<title>Horizontal.22</title>
			<desc>303-307 bp</desc>
			<path d="M0 126.16 L0 142.41 L0 126.16 ZM243 126.16 L243 142.41 L243 126.16 Z" class="st2"/>
			<path d="M0 126.16 L0 142.41 L0 126.16" class="st3"/>
			<path d="M243 126.16 L243 142.41 L243 126.16" class="st3"/>
			<path d="M121.5 136.16 L8.4 136.16" class="st4"/>
			<path d="M121.5 136.16 L234.6 136.16" class="st4"/>
			<rect x="96.1994" y="130.162" width="50.6008" height="12.0001" class="st6"/>
			<text x="96.2" y="139.16" class="st7">303-307 bp</text>		</g>
		<g id="shape24-87" transform="translate(580.5,164.867) rotate(180)">
			<title>Sheet.24</title>
			<path d="M0 147.41 L267.09 147.41" class="st11"/>
		</g>
		<g id="shape35-92" transform="translate(8.85438,-6.20577)">
			<title>Rectangle</title>
			<desc>Read 2</desc>
			<rect x="0" y="124.912" width="49.5" height="22.5" class="st13"/>
			<text x="5.07" y="139.76" class="st14">Read 2</text>		</g>
		<g id="shape37-95" transform="translate(580.5,-118.706)">
			<title>Rectangle.37</title>
			<desc>Read 1</desc>
			<rect x="0" y="124.912" width="49.5" height="22.5" class="st13"/>
			<text x="5.07" y="139.76" class="st14">Read 1</text>		</g>
		<g id="shape38-98" transform="translate(76.3544,-54.5442)">
			<title>Subprocess.38</title>
			<desc>TS</desc>
			<path d="M0 147.41 L54 147.41 L54 114.75 L0 114.75 L0 147.41 Z" class="st2"/>
			<path d="M0 147.41 L54 147.41 L54 114.75 L0 114.75 L0 147.41" class="st8"/>
			<path d="M9 147.41 L9 114.75" class="st8"/>
			<path d="M45 147.41 L45 114.75" class="st8"/>
			<text x="19.33" y="134.68" class="st9">TS </text>		</g>
		<g id="shape39-104" transform="translate(8.85438,-54.5442)">
			<title>Subprocess.39</title>
			<desc>UMI</desc>
			<path d="M0 147.41 L63.15 147.41 L63.15 114.75 L0 114.75 L0 147.41 Z" class="st2"/>
			<path d="M0 147.41 L63.15 147.41 L63.15 114.75 L0 114.75 L0 147.41" class="st8"/>
			<path d="M9 147.41 L9 114.75" class="st8"/>
			<path d="M54.15 147.41 L54.15 114.75" class="st8"/>
			<text x="20.57" y="134.68" class="st9">UMI </text>		</g>
		<g id="shape43-110" transform="translate(76.3544,-28.7058)">
			<title>Horizontal.43</title>
			<desc>6-10 bp</desc>
			<path d="M0 126.16 L0 142.41 L0 126.16 ZM54 126.16 L54 142.41 L54 126.16 Z" class="st2"/>
			<path d="M0 126.16 L0 142.41 L0 126.16" class="st3"/>
			<path d="M54 126.16 L54 142.41 L54 126.16" class="st3"/>
			<path d="M27 136.16 L8.4 136.16" class="st4"/>
			<path d="M27 136.16 L45.6 136.16" class="st4"/>
			<rect x="10.0418" y="130.162" width="33.9162" height="12.0001" class="st6"/>
			<text x="10.04" y="139.16" class="st7">6-10 bp</text>		</g>
	</g>
</svg>
